<svg width="24" height="24" viewBox="0 0 21 21" fill="none" xmlns="http://www.w3.org/2000/svg">
<g clip-path="url(#clip0_21_489)">
<path d="M5.74284 2.16666C4.82617 2.16666 4.08451 2.91666 4.08451 3.83332L4.07617 17.1667C4.07617 18.0833 4.81784 18.8333 5.7345 18.8333H15.7428C16.6595 18.8333 17.4095 18.0833 17.4095 17.1667V7.16666L12.4095 2.16666H5.74284ZM11.5762 7.99999V3.41666L16.1595 7.99999H11.5762Z" fill="white" fill-opacity="0.8"/>
<path d="M8.95337 12.7787V16.3333H8.22095L6.79272 13.9505V16.3333H6.0603V12.7787H6.79272L8.22339 15.1639V12.7787H8.95337ZM10.9749 15.0663H10.0691V14.495H10.9749C11.1148 14.495 11.2288 14.4722 11.3167 14.4266C11.4045 14.3794 11.4688 14.3143 11.5095 14.2313C11.5502 14.1483 11.5706 14.0547 11.5706 13.9505C11.5706 13.8447 11.5502 13.7463 11.5095 13.6551C11.4688 13.564 11.4045 13.4907 11.3167 13.4354C11.2288 13.3801 11.1148 13.3524 10.9749 13.3524H10.323V16.3333H9.59058V12.7787H10.9749C11.2532 12.7787 11.4916 12.8291 11.6902 12.93C11.8904 13.0293 12.0434 13.1668 12.1492 13.3426C12.255 13.5184 12.3079 13.7194 12.3079 13.9456C12.3079 14.1751 12.255 14.3737 12.1492 14.5414C12.0434 14.709 11.8904 14.8384 11.6902 14.9295C11.4916 15.0207 11.2532 15.0663 10.9749 15.0663ZM13.8533 13.3866L12.8865 16.3333H12.1077L13.4285 12.7787H13.9241L13.8533 13.3866ZM14.6565 16.3333L13.6873 13.3866L13.6091 12.7787H14.1096L15.4377 16.3333H14.6565ZM14.6125 15.0101V15.5838H12.7351V15.0101H14.6125Z" fill="black" fill-opacity="0.8"/>
</g>
<defs>
<clipPath id="clip0_21_489">
<rect width="20" height="20" fill="white" transform="translate(0.74292 0.5)"/>
</clipPath>
</defs>
</svg>
